# xmcd
#
# Track frame offsets: 
#        150
#        13121
#        22734
#        42452
#        54706
#        64386
#        76014
#        87068
#        101486
#        123610
#        147426
#        162714
#        177473
#        194450
#        214681
#        224867
#        241135
#        255547
#        273282
#        287289
#
# Disc length: 4176 seconds
#
# Revision: 0
# Processed by: cddbd v1.5.2PL0 Copyright (c) Steve Scherf et al.
# Submitted via: ExactAudioCopyFreeDBPlugin 1.0
#
DISCID=28104e14
DTITLE=Glen Campbell - 20 Greatest Hits in Concert
DYEAR=2007
DGENRE=Country
TTITLE0=Rhinestone Cowboy
TTITLE1=Gentle on My Mind
TTITLE2=Wichita Lineman and Galveston and Country Boy
TTITLE3=By the Time I Get to Phoenix
TTITLE4=Dreams of the Everyday Housewife
TTITLE5=Heartache No 3
TTITLE6=Its Only Make Believe
TTITLE7=Crying
TTITLE8=Rocky Top and Orange Blossom Special
TTITLE9=Milk Cow Blues
TTITLE10=Rollin in My Sweet Babies Arms
TTITLE11=I'm so Lonesome I Could Cry
TTITLE12=Southern Nights
TTITLE13=Amazing Grace
TTITLE14=Try a Little Kindness
TTITLE15=Please Come to Boston
TTITLE16=In Your Loving Arms
TTITLE17=It's Your World Boys and Girls
TTITLE18=Trials and Tribulations
TTITLE19=Mull of Kintyre
EXTD=
EXTT0=
EXTT1=
EXTT2=
EXTT3=
EXTT4=
EXTT5=
EXTT6=
EXTT7=
EXTT8=
EXTT9=
EXTT10=
EXTT11=
EXTT12=
EXTT13=
EXTT14=
EXTT15=
EXTT16=
EXTT17=
EXTT18=
EXTT19=
PLAYORDER=
